<?xml version="1.0" encoding="UTF-8"?>
<svg version="1.1" xmlns="http://www.w3.org/2000/svg" width="500" height="500">
<path d="M0 0 C165 0 330 0 500 0 C500 165 500 330 500 500 C335 500 170 500 0 500 C0 335 0 170 0 0 Z " fill="#F7F6F1" transform="translate(0,0)"/>
<path d="M0 0 C3.88596686 0.95316168 5.59774033 1.87151036 8.3125 4.8125 C18.10336474 23.694882 12.1791013 51.37430183 6.1484375 70.78125 C5.38035918 73.5664312 5.00834873 76.06505195 4.8125 78.9375 C4.3125 82.8125 4.3125 82.8125 2.4375 85.3125 C-1.49179454 88.08611968 -4.98619429 88.22489524 -9.6875 87.8125 C-12.1875 86.4375 -12.1875 86.4375 -13.6875 83.8125 C-13.81116206 76.29002798 -11.5808958 68.9570655 -9.6875 61.75 C-7.14316346 51.69875145 -5.71599676 42.17107338 -5.6875 31.8125 C-9.5925923 35.64967765 -13.18250716 39.653152 -16.72265625 43.82421875 C-19.28933639 46.42151535 -21.18756768 47.73200274 -24.87109375 47.9296875 C-29.93120206 47.38596702 -33.00322458 46.61190903 -36.6875 42.8125 C-40.72373751 34.74002498 -38.13963982 16.12080496 -35.6875 7.8125 C-33.328125 4.90234375 -33.328125 4.90234375 -30.6875 2.8125 C-26.44969739 2.66380517 -24.49492907 3.12929078 -21.25 5.875 C-19.14875141 9.82534735 -19.38701004 12.38027305 -19.6875 16.8125 C-15.21681491 13.1146727 -11.27910819 9.39436668 -7.625 4.875 C-4.1847266 0.9220584 -4.1847266 0.9220584 0 0 Z " fill="#040404" transform="translate(315.6875,227.1875)"/>
<path d="M0 0 C3.40810754 2.48699739 4.67055133 5.06775339 6 9 C6.26742554 11.6421814 6.26742554 11.6421814 6.29052734 14.50537109 C6.30328705 15.58354095 6.31604675 16.66171082 6.32919312 17.77255249 C6.33141876 18.92784454 6.33364441 20.0831366 6.3359375 21.2734375 C6.3425943 22.47054352 6.3492511 23.66764954 6.35610962 24.90103149 C6.36622609 27.4310757 6.37092695 29.96114653 6.37060547 32.49121094 C6.3749762 36.35396467 6.41130232 40.2155735 6.44921875 44.078125 C6.45508761 46.5390586 6.45905654 48.99999762 6.4609375 51.4609375 C6.47530853 52.61218109 6.48967957 53.76342468 6.50448608 54.94955444 C6.46716504 61.52715903 5.99468141 65.68675633 2 71 C-3.32052729 75.27955456 -8.99661514 77.64895832 -15.921875 77.4375 C-22.51539889 76.04938971 -27.13630923 70.14345118 -30.8125 64.87890625 C-33.51210031 60.60749918 -34.72500813 57.07505692 -34 52 C-32.57983306 49.42374676 -31.22061741 48.07257625 -29 46 C-26.5 45.3125 -26.5 45.3125 -24 46 C-19.58321571 49.33951983 -17.93724416 53.02838714 -16.1875 58.109375 C-15.12713296 60.286758 -15.12713296 60.286758 -12.42578125 60.61816406 C-11.62527344 60.74416992 -10.82476562 60.87017578 -10 61 C-9.97470627 54.05827612 -9.95715696 47.11656406 -9.94506836 40.17480469 C-9.94003041 37.81184444 -9.93319992 35.44888732 -9.92456055 33.0859375 C-9.91247146 29.69530465 -9.90676641 26.30471291 -9.90234375 22.9140625 C-9.89718246 21.85256989 -9.89202118 20.79107727 -9.88670349 19.69741821 C-9.88662796 18.71655243 -9.88655243 17.73568665 -9.88647461 16.72509766 C-9.88314369 15.42603989 -9.88314369 15.42603989 -9.87974548 14.10073853 C-9.86446254 11.9416034 -9.86446254 11.9416034 -11 10 C-11.38503376 6.45768939 -11.41935959 4.63742658 -9.4375 1.625 C-6.06489221 -0.62340519 -3.97487617 -0.56783945 0 0 Z " fill="#040404" transform="translate(203,197)"/>
<path d="M0 0 C2.95073666 0.98357889 3.9007619 1.56906891 5.8125 3.9375 C6.55078125 6.20703125 6.55078125 6.20703125 7.125 8.75 C8.1433016 12.53698108 9.12310432 14.64323801 12.0625 17.25 C14.8125 19.9375 14.8125 19.9375 14.9375 22.625 C13.58188841 25.41153493 12.45676899 26.34096023 9.8125 27.9375 C7.12109375 28.30078125 7.12109375 28.30078125 4.25 28.25 C3.29996094 28.24613281 2.34992188 28.24226563 1.37109375 28.23828125 C-1.1875 27.9375 -1.1875 27.9375 -4.1875 25.9375 C-6.57124277 25.27465434 -6.57124277 25.27465434 -9.1875 25.9375 C-11.30181239 27.87635078 -13.05465283 29.69306006 -14.875 31.875 C-20.83652463 38.80240246 -20.83652463 38.80240246 -25.9375 39.3125 C-29.12259363 39.26028535 -31.05213972 38.7750542 -33.625 36.875 C-36.79472463 33.24141323 -37.42459561 31.75844399 -37.1875 26.9375 C-34.73987949 19.1761334 -30.01773492 13.29909287 -23.1875 8.9375 C-19.67050307 7.45894187 -16.17223437 6.23930562 -12.51953125 5.140625 C-7.91710914 3.47878912 -4.92773515 -0.09662226 0 0 Z " fill="#040404" transform="translate(256.1875,239.0625)"/>
<path d="M0 0 C1.65 0 3.3 0 5 0 C5.8971875 1.60875 5.8971875 1.60875 6.8125 3.25 C8.37401069 5.98958993 10.02605503 8.53256878 12 11 C12.0270043 9.54176788 12.04639787 8.08339325 12.0625 6.625 C12.07410156 5.81289063 12.08570313 5.00078125 12.09765625 4.1640625 C12.14466334 1.95062858 12.14466334 1.95062858 11 0 C12.65 0 14.3 0 16 0 C15.67 0.66 15.34 1.32 15 2 C14.76827173 4.54615009 14.58105471 7.07396225 14.4375 9.625 C14.39431641 10.33140625 14.35113281 11.0378125 14.30664062 11.765625 C14.20055249 13.51018537 14.09977111 15.25506697 14 17 C10.95240004 14.07532844 8.34466882 11.32387029 6.1875 7.6875 C5.76855469 6.99011719 5.34960938 6.29273438 4.91796875 5.57421875 C4.46357422 4.79498047 4.46357422 4.79498047 4 4 C3.97303635 5.79158489 3.95362083 7.58328473 3.9375 9.375 C3.92589844 10.37273437 3.91429687 11.37046875 3.90234375 12.3984375 C3.81993398 14.98432453 3.81993398 14.98432453 5 17 C3.35 17 1.7 17 0 17 C0.33 16.34 0.66 15.68 1 15 C1.23029956 12.62876754 1.41119942 10.25258057 1.5625 7.875 C1.64628906 6.59367187 1.73007813 5.31234375 1.81640625 3.9921875 C1.90728516 2.51105469 1.90728516 2.51105469 2 1 C1.34 0.67 0.68 0.34 0 0 Z " fill="#222121" transform="translate(239,302)"/>
<path d="M0 0 C0.66 0.33 1.32 0.66 2 1 C1.67 2.32 1.34 3.64 1 5 C0.34 4.01 -0.32 3.02 -1 2 C-4.81813447 2.27540704 -4.81813447 2.27540704 -8 4 C-8.3972731 8.96824879 -8.3972731 8.96824879 -6.5 13.4375 C-6.005 13.953125 -5.51 14.46875 -5 15 C-2.52733235 14.65555119 -2.52733235 14.65555119 0 14 C0.33 13.34 0.66 12.68 1 12 C1.66 12 2.32 12 3 12 C1.125 15.875 1.125 15.875 0 17 C-6.46153846 17.35897436 -6.46153846 17.35897436 -10 15 C-11.23746694 11.28759918 -11.54341681 7.85825935 -11 4 C-8.13125414 -0.58999337 -5.13686256 -0.47563542 0 0 Z " fill="#161616" transform="translate(271,302)"/>
<path d="M0 0 C1.98 0 3.96 0 6 0 C6 0.66 6 1.32 6 2 C5.34 2 4.68 2 4 2 C4.14069196 4.12534659 4.28770921 6.25027529 4.4375 8.375 C4.51871094 9.55835938 4.59992188 10.74171875 4.68359375 11.9609375 C4.81084936 14.91518901 4.81084936 14.91518901 6 17 C4.02 17 2.04 17 0 17 C0.66 16.67 1.32 16.34 2 16 C2 11.38 2 6.76 2 2 C1.34 2 0.68 2 0 2 C0 1.34 0 0.68 0 0 Z " fill="#272726" transform="translate(227,302)"/>
<path d="M0 0 C1.65 0 3.3 0 5 0 C4.67 0.66 4.34 1.32 4 2 C3.76827173 4.54615009 3.58105471 7.07396225 3.4375 9.625 C3.39431641 10.33140625 3.35113281 11.0378125 3.30664062 11.765625 C3.20055249 13.51018537 3.09977111 15.25506697 3 17 C2.01 16.34 1.02 15.68 0 15 C0.33 14.01 0.66 13.02 1 12 C1.09287771 10.31454276 1.12997204 8.625507 1.125 6.9375 C1.12757813 6.05964844 1.13015625 5.18179687 1.1328125 4.27734375 C1.14833424 1.96801734 1.14833424 1.96801734 0 0 Z " fill="#141413" transform="translate(250,302)"/>
<path d="M0 0 C0.8353125 1.0209375 0.8353125 1.0209375 1.6875 2.0625 C3.8414382 4.31133337 3.8414382 4.31133337 6.6875 3.875 C9.16427096 3.23669149 9.16427096 3.23669149 10 1 C10.66 1 11.32 1 12 1 C10.125 4.875 10.125 4.875 9 6 C2.61126761 6.47323944 2.61126761 6.47323944 0.0625 4.5 C-0.4634375 3.7575 -0.4634375 3.7575 -1 3 C-0.67 2.01 -0.34 1.02 0 0 Z " fill="#2D2D2C" transform="translate(262,313)"/>
<path d="M0 0 C0.33 0 0.66 0 1 0 C1.06058594 0.84304688 1.12117187 1.68609375 1.18359375 2.5546875 C1.26738281 3.65039062 1.35117188 4.74609375 1.4375 5.875 C1.51871094 6.96554687 1.59992188 8.05609375 1.68359375 9.1796875 C1.83001703 11.94728971 1.83001703 11.94728971 3 14 C1.35 14 -0.3 14 -2 14 C-1.67 13.34 -1.34 12.68 -1 12 C-0.77141886 9.9625237 -0.58975722 7.91959697 -0.4375 5.875 C-0.35371094 4.77929688 -0.26992187 3.68359375 -0.18359375 2.5546875 C-0.12300781 1.71164062 -0.06242188 0.86859375 0 0 Z " fill="#191918" transform="translate(241,305)"/>
</svg>
